<?xml version="1.0" encoding="UTF-8"?>
<!--
  BRA-0001 — Primary Logo Master — Icon Only, Transparent Background
  DRAFT v0.11 — SECOND REFERENCE, DOUBLE-HORN GEOMETRY — NOT YET MARKED APPROVED
  Same geometry as mfs-logo-icon-dark_v0.11.svg, background rect omitted.
-->
<svg xmlns="http://www.w3.org/2000/svg" viewBox="0 0 100 100">
  <path d="M2,39 L33,28 L42,35 L28,47 Z" fill="#F5F7FA"/>
  <path d="M98,39 L67,28 L58,35 L72,47 Z" fill="#F5F7FA"/>
  <path d="M20,84 L38,84 L38,92 L20,92 Z" fill="#F5F7FA"/>
  <path d="M62,84 L80,84 L80,92 L62,92 Z" fill="#F5F7FA"/>
  <path d="M36,28 L47,28 L50,32 L53,28 L64,28 L68,44 L60,58 L75,74 L75,84 L25,84 L25,74 L40,58 L32,44 Z M49.17,32.45 L42.42,42.25 L51.81,50.24 L43.21,59.81 L48.65,70.58 L46.08,79.22 L53.92,80.78 L55.35,69.42 L48.79,60.19 L56.19,49.76 L45.58,41.75 L50.83,33.55 Z" fill="#F5F7FA" fill-rule="evenodd"/>
  <path d="M48,18 L58,15 L62,22 L54,27 Z" fill="#F5F7FA"/>
  <path d="M48,18 L51,19.5 L54,27 L50,24 Z" fill="#00E5FF"/>
</svg>
